<svg xmlns="http://www.w3.org/2000/svg" xmlns:xlink="http://www.w3.org/1999/xlink" viewBox="0 0 405.35 54.61"><defs><style>.cls-1{fill:none;}.cls-2{fill:#fff;}.cls-3{clip-path:url(#clip-path);}.cls-4{fill:url(#linear-gradient);}.cls-5{clip-path:url(#clip-path-2);}.cls-6{fill:url(#linear-gradient-2);}</style><clipPath id="clip-path"><polygon class="cls-1" points="103.68 3.49 90.93 35.36 86.7 46.02 90.29 54.61 111.6 3.49 103.68 3.49"/></clipPath><linearGradient id="linear-gradient" x1="-31.79" y1="319.06" x2="-30.79" y2="319.06" gradientTransform="matrix(0, -51.12, -51.12, 0, 16409.76, -1570.34)" gradientUnits="userSpaceOnUse"><stop offset="0" stop-color="#00d662"/><stop offset="0.12" stop-color="#00d162"/><stop offset="0.27" stop-color="#00c263"/><stop offset="0.44" stop-color="#00a863"/><stop offset="0.61" stop-color="#008664"/><stop offset="0.78" stop-color="#005e65"/><stop offset="0.84" stop-color="#0c5768"/><stop offset="0.96" stop-color="#2d436f"/><stop offset="1" stop-color="#3c3b72"/></linearGradient><clipPath id="clip-path-2"><polygon class="cls-1" points="68.98 3.49 82.22 35.28 85.9 26.01 76.89 3.49 68.98 3.49"/></clipPath><linearGradient id="linear-gradient-2" x1="-31.79" y1="319.06" x2="-30.79" y2="319.06" gradientTransform="matrix(0, -31.78, -31.78, 0, 10218.02, -974.98)" xlink:href="#linear-gradient"/></defs><title>RevelFlame</title><g id="Layer_2" data-name="Layer 2"><g id="Layer_1-2" data-name="Layer 1"><g id="Ready7"><path class="cls-2" d="M0,3.49H8.57q8.49,0,12.67,2.81c3.79,2.55,5.69,6.31,5.69,11.31A13.23,13.23,0,0,1,16.27,31l15,20.52H22.39L8.64,31.86H7.34V51.52H0Zm7.34,6.77V25.53H9.65c.62,0,1.25,0,1.87-.08a14.16,14.16,0,0,0,2.56-.5,9.81,9.81,0,0,0,2.8-1.19A6.35,6.35,0,0,0,19,21.42a7.42,7.42,0,0,0,.9-3.74q0-7.41-10-7.42Z"/><polygon class="cls-2" points="64.94 3.49 64.94 10.41 45.79 10.41 45.79 22.57 64.37 22.57 64.37 29.49 45.79 29.49 45.79 44.61 64.94 44.61 64.94 51.52 38.45 51.52 38.45 3.49 64.94 3.49"/><polygon class="cls-2" points="143.5 3.49 143.5 10.41 124.34 10.41 124.34 22.57 142.92 22.57 142.92 29.49 124.34 29.49 124.34 44.61 143.5 44.61 143.5 51.52 117 51.52 117 3.49 143.5 3.49"/><polygon class="cls-2" points="153 3.49 160.34 3.49 160.34 44.61 174.46 44.61 174.46 51.52 153 51.52 153 3.49"/><g class="cls-3"><rect class="cls-4" x="86.7" y="3.49" width="24.89" height="51.12"/></g><g class="cls-5"><rect class="cls-6" x="68.98" y="3.49" width="16.93" height="31.78"/></g><path class="cls-2" d="M224.75,10.5H208.06V22.65h16.11v6.91H208.06v22h-7.33V3.6h24Z"/><path class="cls-2" d="M240.43,3.6V44.66h14.09v6.9H233.09V3.6Z"/><path class="cls-2" d="M295.62,40H275.13l-5.25,11.58H262L285.84.79l22.73,50.77h-7.91Zm-2.95-6.9-7.12-16.25-7.4,16.25Z"/><path class="cls-2" d="M316.17,51.56,326.24,0l16.69,37.25L359.75,0l9.06,51.56h-7.47l-4.89-28.91-14,31.14-13.8-31.21-5,29Z"/><path class="cls-2" d="M405.35,10.5H386.22V22.65h18.56v6.91H386.22v15.1h19.13v6.9H378.89V3.6h26.46Z"/></g></g></g></svg>