<svg xmlns="http://www.w3.org/2000/svg" width="68.718" height="29.12" viewBox="0 0 68.718 29.12">
  <defs>
    <style>
      .cls-1 {
        fill: #f9f9fa;
        fill-rule: evenodd;
      }
    </style>
  </defs>
  <path id="BTC" class="cls-1" d="M672,1718.39a7.268,7.268,0,0,0-2.48-5.64,8.705,8.705,0,0,0-6.04-2.24h-11.04v28h11.88a8.9,8.9,0,0,0,6.2-2.28,7.527,7.527,0,0,0,2.52-5.84,6.921,6.921,0,0,0-3.68-6.4,6.824,6.824,0,0,0,2.64-5.6h0Zm-6.36-1.84a3.066,3.066,0,0,1,.84,2.2,3.028,3.028,0,0,1-.86,2.2,2.86,2.86,0,0,1-2.14.88h-5.52v-6.16h5.52A2.842,2.842,0,0,1,665.639,1716.55Zm-7.68,10.2h6.36a3.1,3.1,0,0,1,2.32.94,3.225,3.225,0,0,1,.92,2.34,3.27,3.27,0,0,1-.92,2.38,3.1,3.1,0,0,1-2.32.94h-6.36v-6.6Zm15.8-10.96h7.52v22.72h5.52v-22.72h7.56v-5.28h-20.6v5.28Zm42.38,21.5a13.037,13.037,0,0,0,5.02-4.82l-4.76-2.76a7.17,7.17,0,0,1-2.94,2.9,9.644,9.644,0,0,1-10.94-1.5,10.076,10.076,0,0,1,0-13.24,9.612,9.612,0,0,1,10.92-1.5,7.437,7.437,0,0,1,2.96,2.94l4.76-2.76a13.037,13.037,0,0,0-5.02-4.82,14.238,14.238,0,0,0-7.02-1.78,14.561,14.561,0,1,0,0,29.12A14.238,14.238,0,0,0,716.139,1737.29Z" transform="translate(-652.438 -1709.94)"/>
</svg>
