<?xml version="1.0" encoding="utf-8"?>
<!-- Generator: Adobe Illustrator 23.1.0, SVG Export Plug-In . SVG Version: 6.00 Build 0)  -->
<svg version="1.1" id="Layer_1" xmlns="http://www.w3.org/2000/svg" xmlns:xlink="http://www.w3.org/1999/xlink" x="0px" y="0px"
	 viewBox="0 0 2500 1595" style="enable-background:new 0 0 2500 1595;" xml:space="preserve">
<style type="text/css">
	.st0{fill:#FFFFFF;}
</style>
<g>
	<path class="st0" d="M439.6,620.7l-79.9,108.5h435.3c22,0,21.7,8.3,11,22.9c-10.9,14.8-29.2,40.5-40.3,55.6
		c-5.7,7.6-15.9,21.5,18,21.5h178l52.8-71.7c32.7-44.4,2.9-136.8-114.1-136.8L439.6,620.7z"/>
	<path class="st0" d="M327.4,974.3l160.5-218H687c22,0,21.7,8.3,11,22.9l-40.6,55.3c-5.7,7.6-15.9,21.5,18,21.5H942
		c-22.1,30.4-94.1,118.2-223.3,118.2H327.4z M1246.2,856l-87,118.3H929.7l87-118.3H1246.2z M1597.8,829.2h-561.3L1190,620.7h229.4
		l-87.9,119.6h102.4l88-119.6h229.4L1597.8,829.2z M1578.1,856l-87,118.3h-229.4l87-118.3H1578.1z M0,902.6h338l-18.4,25.1H0V902.6z
		 M0,856h372.4l-18.5,25.1H0V856z M0,949.3h303.7l-18.4,25H0V949.3z M2500,927.7h-336.8l18.5-25.1H2500V927.7z M2500,974.3h-371
		l18.3-25H2500V974.3z M2216,856h284v25.1h-302.5L2216,856z M2069,620.7l-153.5,208.5h-243.1L1826,620.7H2069z M1652.7,856
		c0,0-16.7,22.9-24.9,33.9c-28.8,39-3.3,84.3,90.7,84.3h368.4l87-118.2L1652.7,856z"/>
</g>
</svg>
