<svg xmlns="http://www.w3.org/2000/svg" viewBox="0 0 436.89 122.07"><defs><style>.cls-1{fill:#fff;}</style></defs><title>CDEK</title><g id="Layer_2" data-name="Layer 2"><g id="Layer_1-2" data-name="Layer 1"><g id="CDEK"><path class="cls-1" d="M107.08,75.45c1.37-4,2.64-7.78,3.92-11.52Q121.53,33,132.05,2.14c.5-1.49,1.13-2.08,2.77-2.07,15.83.09,31.67-.13,47.5.24A68.88,68.88,0,0,1,198.79,3c7.57,2.07,11.9,7.68,14.07,15.1,3.08,10.52,1.65,20.87-1.31,31.08-5.56,19.19-14.42,36.69-27.69,51.71-11.05,12.51-24.91,20-41.78,20.57-16.48.56-33,.45-49.47.63a10.13,10.13,0,0,1-1.3-.19c.39-1.22.72-2.32,1.08-3.41,1.77-5.3,3.58-10.59,5.31-15.9a12.1,12.1,0,0,1,9.66-8.68,40.5,40.5,0,0,1,7.43-.87c8.69-.1,17.39-.28,26.07,0s15.72-3.31,21.45-9.5c9.75-10.53,14.86-23.36,17.56-37.21a29.94,29.94,0,0,0,0-10.47c-.73-4.26-4.08-6.63-8.42-6.71-5.3-.1-10.61,0-15.91-.05-1.51,0-2,.73-2.4,2-3.31,10.05-6.61,20.11-10,30.12a54.46,54.46,0,0,1-3.63,8,11,11,0,0,1-9.6,6.17C122.4,75.61,115,75.45,107.08,75.45Z"/><path class="cls-1" d="M295,122c.52-1.66.89-3,1.34-4.29Q316.13,60.3,335.9,2.86C336.66.65,337.66,0,340,0c8.24.15,16.5.06,24.75.06h3c-6,17.5-11.82,34.61-17.66,51.72l.63.35c.55-.51,1.14-1,1.65-1.56q23.06-24.74,46.1-49.45a3.49,3.49,0,0,1,2.27-1c11.64-.07,23.28,0,34.92,0a10.55,10.55,0,0,1,1.24.21c-3,2.73-5.72,5.23-8.46,7.72q-24.37,22.14-48.77,44.24c-1.39,1.26-1.49,2.3-.87,4q11.54,31.59,22.92,63.23c.25.68.46,1.37.78,2.37-.93.07-1.69.19-2.45.2-6.85,0-13.7-.11-20.55,0-5.54.12-9.45-2.35-11.56-7.24s-3.79-10-5.46-15.11c-2.75-8.38-5.32-16.82-8-25.22-.26-.82-.64-1.59-1.11-2.73-2.15,1.76-4.08,3.31-6,4.9-8.46,7.1-8.42,7.12-12,17.66q-4.41,12.93-9,25.8c-.27.74-1.16,1.8-1.77,1.8C314.87,122.05,305.15,122,295,122Z"/><path class="cls-1" d="M118.48.11A19,19,0,0,1,118,2c-2,5.76-3.93,11.55-6,17.27C109.56,26,105.29,29,98.16,29.11c-9.57.1-19.16.32-28.71-.08-9-.38-15.89,3-21.48,9.63C38.86,49.49,33.7,61.9,33.47,76.15a24.19,24.19,0,0,0,1.05,6.95c1.81,6.33,6.64,9.83,13.28,9.86,6.92,0,13.85-.16,20.77.09a30.87,30.87,0,0,1,9,1.73c4.69,1.65,6.7,5.58,5.39,10.41-1.43,5.23-3.24,10.37-5,15.51a2.48,2.48,0,0,1-1.88,1.3c-14.06-.12-28.18.38-42.16-.72C16.8,119.93,3.83,108.76.75,91.76c-1.46-8-.62-16,1-23.88,3.85-18.33,11.7-34.66,25-48C37.37,9.18,50.32,3.09,65.15,1.07A112.37,112.37,0,0,1,79,.15c12.3-.12,24.6,0,36.9,0Z"/><path class="cls-1" d="M230.77,29c1.47-4.73,2.91-9.33,4.33-13.94.63-2,1.21-4.08,1.89-6.1a10.71,10.71,0,0,1,7.73-7.48A29.75,29.75,0,0,1,251.86.23c22.45-.1,44.9-.07,67.34-.07.36,0,.72,0,1.29.09-.16.73-.26,1.35-.44,2-1.77,5.76-3.65,11.48-5.3,17.27C313.19,25,309.4,27.76,304,28.6a52.43,52.43,0,0,1-8.12.55q-31.8,0-63.59,0A15.34,15.34,0,0,1,230.77,29Z"/><path class="cls-1" d="M215.38,75.58C217,70.29,218.52,65.4,220,60.5c.32-1,.72-2.09,1-3.16,1.33-6,5.26-9.16,11.09-10.19a31.7,31.7,0,0,1,5.49-.53q32.92-.06,65.86,0c.43,0,.86,0,1.64.07-.64,2.22-1.22,4.29-1.85,6.35-1.12,3.65-2.43,7.26-3.38,11-1.76,6.82-4.47,10.65-14.82,11.52-2,.17-4.13.1-6.19.1H215.38Z"/><path class="cls-1" d="M289,93.1c-1.89,6.17-3.65,12.06-5.52,17.92a21.91,21.91,0,0,1-2.22,5.24c-2.6,4-6.86,5-11.26,5.55a44.31,44.31,0,0,1-5.29.2q-31.14,0-62.28,0h-3.15c1.07-3.58,2-6.73,3-9.87.9-3,2-5.84,2.75-8.83,1.53-6.14,5.75-9,11.63-9.84A40.63,40.63,0,0,1,222.5,93q32.15,0,64.27,0C287.35,93,287.93,93.05,289,93.1Z"/></g></g></g></svg>