<svg xmlns="http://www.w3.org/2000/svg" viewBox="0 0 248.96 249.37" width="55" height="55">
  <defs>
    <style>.cls-1{fill:#fff;}</style>
  </defs>
  <title>NP</title>
  <g id="Layer_2" data-name="Layer 2">
    <g id="Layer_1-2" data-name="Layer 1">
      <g id="NP">
        <path class="cls-1" d="M125.16,99.3c-5.56,0-11.12,0-16.67,0-4,0-6.48-2.4-6.49-6.42,0-10.89,0-21.78,0-32.67,0-4.94-2.17-7.12-7.11-7.12-5.63,0-11.26,0-16.89,0a5.61,5.61,0,0,1-1.79,0c-1.21-.42-3-.75-3.36-1.62s.48-2.56,1.31-3.41c7.09-7.24,14.29-14.37,21.46-21.54q11.87-11.86,23.74-23.74c3.65-3.64,7.08-3.67,10.76,0q22.43,22.35,44.78,44.76a10.57,10.57,0,0,1,1.05,1.17c1.63,2.17,1,3.92-1.74,4.3a33.55,33.55,0,0,1-4.49.1h-14c-5.19,0-7.17,2-7.18,7.25q0,15,0,30c0,1,0,2,0,2.93a6.15,6.15,0,0,1-6.47,6.07C136.42,99.32,130.79,99.3,125.16,99.3Z"/>
        <path class="cls-1" d="M102,173.14c0-5.78,0-11.57,0-17.35,0-4.31,2.55-6.84,6.87-6.85q16.33,0,32.67,0c4.38,0,7,2.6,7,7,0,11.34.12,22.68,0,34-.07,4.84,2.55,7.85,7.72,7.62s10.66-.14,16,0a4.57,4.57,0,0,1,3.33,1.54c.37.6-.5,2.41-1.29,3.2q-22.38,22.55-44.9,44.94c-3,3-6.64,2.78-9.91-.49q-14-13.9-27.88-27.86L76.42,203.77a7.33,7.33,0,0,1-1.53-1.63c-.51-1-1.3-2.37-1-3.15s1.91-1.39,3-1.41c6.23-.13,12.47,0,18.7-.07a6,6,0,0,0,6.24-4.79,9.82,9.82,0,0,0,.17-2.24Q102,181.81,102,173.14Z"/>
        <path class="cls-1" d="M52.39,124.76q0,23.53,0,47.07c0,1.51.49,3.4-1.36,4.18s-3.06-.72-4.22-1.88Q24.64,152,2.52,129.87c-3.33-3.34-3.37-6.93-.06-10.25Q24.81,97.23,47.2,74.88a7.59,7.59,0,0,1,1.55-1.29c1.68-1,3.2-.26,3.52,1.63a16.18,16.18,0,0,1,.11,2.7Q52.4,101.34,52.39,124.76Z"/>
        <path class="cls-1" d="M198,124.66V79.59a8,8,0,0,1,.05-2.24c.31-1,.69-2.52,1.41-2.77.87-.31,2.21.3,3.19.82a10.23,10.23,0,0,1,2.13,2c13.86,13.86,27.65,27.8,41.64,41.53a7.69,7.69,0,0,1,.06,11.39c-14.39,14.07-28.53,28.4-42.77,42.63-.42.42-.79,1-1.3,1.23-.9.39-2.08,1-2.8.73s-1.19-1.56-1.54-2.48a5.84,5.84,0,0,1-.07-2Z"/>
      </g>
    </g>
  </g>
</svg>