<svg xmlns="http://www.w3.org/2000/svg" viewBox="0 0 804.69 654.37"><defs><style>.cls-1{fill:#01d66a;}.cls-2{fill:#fff;}</style></defs><title>Warranty</title><g id="Layer_2" data-name="Layer 2"><g id="Layer_1-2" data-name="Layer 1"><path class="cls-1" d="M645.39,499.12l-68-7.69-1.33-1.3a45.94,45.94,0,0,0,5.8-4.28c37.62-37.57,61.2-82.51,70.38-134.93,3.84-21.93,5.13-44.11,2.2-66.12-12.14-91.13-59.55-157.63-141.77-198.64C470.4,65.1,425.14,57.77,378.23,62.24c-109.31,10.43-199,88-222.19,192.3-19.89,89.52,4.35,167.47,68.66,232.9,1.11,1.13,2.16,2.33,3.69,4-10.88,1.19-21.06,2.25-31.23,3.43-11.07,1.29-22.13,2.66-33.19,4-9,1.13-19.64-5.88-23.28-16.54-2.19-6.38-3-13.26-4.22-19.95-1.9-10.46-3.36-21-5.49-31.43-3.25-15.85-13.46-28-22.4-40.8-4-5.73-8.16-11.36-12.18-17.08-5.83-8.28-7.4-17.25-4.38-27,2.94-9.53,5.21-19.3,8.68-28.62,7-18.83,6.55-37.75,2.42-57-1.85-8.61-3.23-17.34-4.38-26.07-1.21-9.28,1.74-17.42,8-24.32s12.55-14.29,19.34-20.9a96.89,96.89,0,0,0,27.29-47.32c2.3-9.35,5.35-18.52,8.18-27.74,2.9-9.43,8.78-16.31,18-20.07C191,89.41,202.34,84.6,213.86,80.3A86.13,86.13,0,0,0,248.69,56c7.52-8.47,15.29-16.71,22.94-25.07a31.76,31.76,0,0,1,26.82-10.7c11.63.81,23.25,1.78,34.88,2.64,14.16,1.05,27.76-.68,40.9-6.64C385.72,11,397.59,6.61,409.38,2.11c9.07-3.46,18-2.61,26.47,2.13s17.13,9,25.28,14.11c17,10.75,35.54,15.28,55.45,15.61,9.31.16,18.62,1,27.92,1.71,10.33.79,18,6,23.92,14.41,7.8,11.2,15.61,22.41,23.78,33.34a71.82,71.82,0,0,0,23.7,20.34c9.81,5.29,19.28,11.28,29.34,16C659.13,126.35,666,137,667.6,152c1.14,10.89,3.36,21.68,5.25,32.48A78.58,78.58,0,0,0,687,217.17c7,9.74,13.81,19.6,20.87,29.29,6.46,8.85,8.1,18.31,4.79,28.79s-5.95,21.13-9.5,31.49c-5.42,15.76-5.56,31.56-2.27,47.71,2.13,10.42,3.82,20.94,5.24,31.49,1.25,9.23-1.58,17.43-7.9,24.34q-13.17,14.37-26.4,28.68a76.72,76.72,0,0,0-17.71,31.44C651.43,480,648.35,489.42,645.39,499.12Z"/><path class="cls-1" d="M40.1,645.85c5.73-20.54,11-40.06,16.69-59.48,1-3.28.73-4.75-2.4-6.63C37.14,569.36,20.08,558.66,3,548.05c-.8-.5-1.52-1.12-3-2.19L91.51,518c2.34,5.58,4.68,11.18,7.24,17.31,7.54-1.23,15-2.66,22.56-3.64,33.32-4.31,66.6-9,100-12.61a1605.68,1605.68,0,0,1,210.53-8.83q58.67,1.35,117.24,5.84c35,2.65,69.86,7,104.71,11.17,16.49,2,32.83,5.21,49.27,7.63a5.19,5.19,0,0,0,4.21-2.37c2.25-4.59,4-9.45,6-14.5l91.4,27.75a38.5,38.5,0,0,1-3.13,2.49c-16.68,10.36-33.33,20.78-50.13,30.94-3.19,1.94-4.24,3.49-3.11,7.38,5.48,18.82,10.55,37.75,15.75,56.64a22.6,22.6,0,0,1,.33,2.49l-75.84-23c-3.38,10.47-6.72,20.79-10.22,31.62q-275.89-51.57-551.76,0c-3.41-10.59-6.7-20.79-10.21-31.65Z"/><path class="cls-1" d="M420.18,131.05V317.61H378.69V179.29l-34.54,7.83c0-10.34-.12-19.45.16-28.55,0-1.14,2-2.87,3.36-3.22,16-4,30.09-11.36,42-22.86a5.46,5.46,0,0,1,3.45-1.38C401.93,131,410.75,131.05,420.18,131.05Z"/><path class="cls-2" d="M182.37,559.06l29.56-3.8,1.59,12.36-16.78,2.16,4.84,37.63-12.79,1.64Z"/><path class="cls-2" d="M275.28,600l-13.84,1.2-2.78-7.06L242,595.63l-1.53,7.43-13.91,1.2,12.22-51.64,15.64-1.36Zm-27.45-33.25-3.54,17.5,10.11-.87"/><path class="cls-2" d="M290.43,548.69l19.56-1A17.83,17.83,0,0,1,323,552.08a18.09,18.09,0,0,1,1.23,25.32A17.86,17.86,0,0,1,311.71,583l-6.69.33.73,15.1-12.87.62Zm14,22.39,6.69-.33a4.9,4.9,0,0,0,3.56-1.68,5.36,5.36,0,0,0,1.28-4,5.17,5.17,0,0,0-1.66-3.77,4.91,4.91,0,0,0-3.7-1.3l-6.69.32Z"/><path class="cls-2" d="M389.46,595.82l-13.89.28-2.31-7.22-16.77.34-2,7.32-14,.28,15.59-50.73,15.7-.32Zm-25.2-35-4.69,17.24,10.15-.21Z"/><path class="cls-2" d="M434.51,564.23l.16-18.64,12.81.11-.43,50.4L434.24,596l.16-19.37-14.18-.12-.17,19.36-12.89-.11.44-50.4,12.89.12-.16,18.64Z"/><path class="cls-2" d="M467.94,546.2l37.76,1.63-.53,12.44-12.45-.53-1.63,37.9-12.88-.55,1.64-37.91-12.45-.54Z"/><path class="cls-2" d="M562.45,603l-12.77-1.17L552,576.6l-20,23.61-10-.91,4.59-50.19,12.84,1.17-2.31,25.24,20-23.61,9.89.9Z"/><path class="cls-2" d="M609.38,559l19.86,3.5-8.76,49.64-12.62-2.23,2.82-16L608,593.4l-12.83,14.26-14.11-2.49,14.49-15.79a16.6,16.6,0,0,1-6-7.2,15.82,15.82,0,0,1-1-9.17,16.22,16.22,0,0,1,7.27-11.37A17.9,17.9,0,0,1,609.38,559Zm-3.88,22.86,7.09,1.25,2-11.13-7.09-1.25a5.1,5.1,0,0,0-4.07.92,5.68,5.68,0,0,0-2.24,3.74,5.61,5.61,0,0,0,.82,4.31A4.91,4.91,0,0,0,605.5,581.85Z"/><path class="cls-1" d="M273.27,350.4h48.18v20.14H294.1v61.34H273.27Z"/><path class="cls-1" d="M417.59,421.4a41.6,41.6,0,0,1-30.26,12.22q-18,0-30.38-12.22t-12.34-30.26q0-17.92,12.34-30.14t30.38-12.34q17.91,0,30.26,12.34T430,391.14A41.2,41.2,0,0,1,417.59,421.4Zm-46-14.32a23.1,23.1,0,0,0,31.43,0q6.29-6.27,6.28-15.94T403,375.31a22.8,22.8,0,0,0-31.43,0q-6.28,6.06-6.28,15.83T371.61,407.08Z"/><path class="cls-1" d="M525.13,350.4v61.34h8.73v35.73H513.14V431.88H475.08v15.59H454.25V411.74h8.61q5.59-9,5.59-25.84V350.4Zm-40.62,61.34h19.9v-42H489.16v16.42Q489.16,402.55,484.51,411.74Z"/></g></g></svg>