<svg xmlns="http://www.w3.org/2000/svg" viewBox="0 0 462.96 274.06"><defs><style>.cls-1{fill:#fff;}</style></defs><title>MC_Logo</title><g id="Layer_2" data-name="Layer 2"><g id="Layer_1-2" data-name="Layer 1"><path class="cls-1" d="M239.67,243.21a149.24,149.24,0,0,0,32.2-45.47,134.3,134.3,0,0,0,6.77-18.1H267.3a137.22,137.22,0,0,1-35.94,56.57,137.32,137.32,0,0,1-35.73-56.52H184.25a148.36,148.36,0,0,0,38.64,63.48c-.33.29-.59.54-.88.77a137.55,137.55,0,0,1-55,26.71,130.64,130.64,0,0,1-19.29,3,136.31,136.31,0,0,1-74.52-15.33q-47.89-25.78-66-77.21A129.33,129.33,0,0,1,1,153.3,136.85,136.85,0,0,1,124.43.61,133.58,133.58,0,0,1,153.05,1c25.74,3.18,48.66,13.08,69,29.14.27.21.52.44.9.76a148.28,148.28,0,0,0-38.6,63.31,79.52,79.52,0,0,0,11.33.13,137.49,137.49,0,0,1,35.7-56.46A138.39,138.39,0,0,1,252.88,64a135.15,135.15,0,0,1,14.43,30.47h11.34a140.39,140.39,0,0,0-9.28-23.35,147.69,147.69,0,0,0-13.15-21.37,155.31,155.31,0,0,0-16.53-18.88c46.09-39.32,124.82-45,179.6,6a136.73,136.73,0,0,1,3.78,196.7C369.44,287.35,288.49,284.44,239.67,243.21ZM51,169.12,69.82,126.9,70,127c-2.64,14-5.28,28-7.93,42.14H76.39q5.73-30.5,11.46-61H65.21L48.69,144.61l-.27,0q-1.32-18.24-2.62-36.45H23.69c-3.94,20.35-7.87,40.63-11.81,61H25.65c.56-2.92,1.13-5.81,1.69-8.71s1.09-5.73,1.64-8.59,1.13-5.81,1.69-8.72,1-5.73,1.63-8.59A75.76,75.76,0,0,1,34.22,126q1.8,21.54,3.63,43.12Zm387.73,0q6-32.13,12-64.16a125.9,125.9,0,0,0-14.5.09c-1.21,6.31-2.42,12.65-3.67,19.18-.45-.38-.78-.62-1.07-.91-.66-.65-1.3-1.33-2-2a9.48,9.48,0,0,0-6.4-3c-2.32-.09-4.65-.09-7,0-6.39.29-11.21,3.34-14.79,8.54a39.56,39.56,0,0,0-4.45,8.95,34.55,34.55,0,0,0-2.46,11.85A25.21,25.21,0,0,0,398.48,162a16.74,16.74,0,0,0,6.14,5.74,10.94,10.94,0,0,0,6.36,1.37,24.72,24.72,0,0,0,10.13-3.41l.95-.53c.61,1.34,1.19,2.64,1.78,3.95Zm-81.86.05c.14-.65.25-1.14.35-1.64l5-25a34.78,34.78,0,0,0,.88-10.32c-.58-5.86-3.45-10.05-9-12.3a24.48,24.48,0,0,0-8.4-1.74,89.59,89.59,0,0,0-19.82,1.47,1.26,1.26,0,0,0-1.18,1.2c-.52,2.91-1.12,5.81-1.68,8.71-.07.36-.06.73-.1,1.19.31,0,.51,0,.71-.06,2.69-.32,5.37-.63,8.06-1a63.26,63.26,0,0,1,12.15-.35,10.35,10.35,0,0,1,2.47.52,3.08,3.08,0,0,1,2,2,8.35,8.35,0,0,1,.07,4.44h-1.5c-1.94,0-3.89-.09-5.83,0a38.85,38.85,0,0,0-9.41,1.27c-8,2.18-13.31,7.08-15.2,15.34a13.57,13.57,0,0,0,.27,7.63c1.52,4.28,4.7,6.79,8.89,8.19a19.09,19.09,0,0,0,7.92.48c3-.27,5.95-.82,8.49-2.65,0,0,.15,0,.3,0a15.79,15.79,0,0,1,.91,1.46,2,2,0,0,0,2.09,1.21c3.25-.08,6.51,0,9.77,0Zm-233.3,0c.14-.6.25-1.05.34-1.51q2.52-12.62,5-25.23a34.66,34.66,0,0,0,.85-10.2c-.56-5.75-3.35-9.92-8.73-12.22a23.79,23.79,0,0,0-8.26-1.81,88.3,88.3,0,0,0-20.33,1.48,1.1,1.1,0,0,0-1,1c-.54,3-1.14,5.89-1.71,8.84-.06.35-.06.72-.1,1.23L96.2,130a69.55,69.55,0,0,1,14-.62,12.61,12.61,0,0,1,2.72.54,3.06,3.06,0,0,1,2,2,8.12,8.12,0,0,1,.06,4.43c-.61,0-1.11,0-1.61,0-1.95,0-3.89-.09-5.84,0a36.77,36.77,0,0,0-11.57,2c-7.3,2.67-11.67,7.86-13,15.49a14.58,14.58,0,0,0-.08,4.66c.72,4.77,3.63,7.88,7.95,9.76A16.33,16.33,0,0,0,99,169.27c3.48-.31,6.93-.62,9.93-2.93.38.61.76,1.11,1,1.67a2,2,0,0,0,2.09,1.21c2.83-.09,5.66,0,8.5,0Zm186-15.51c-.36.08-.56.12-.76.18a24.72,24.72,0,0,1-8.88,1.16,12.56,12.56,0,0,1-12-9.86,21.73,21.73,0,0,1,1.71-14.95c4.52-9.27,15.12-13.6,25.07-8.26a1.28,1.28,0,0,0,.26.07l8.92-9a.48.48,0,0,0-.11-.21,19.72,19.72,0,0,0-7.78-5.75c-5.84-2.18-11.84-2.87-17.92-1.16-10.33,2.91-17.58,9.44-22,19.14a44.24,44.24,0,0,0-3.5,13.31,33.06,33.06,0,0,0,.94,13.2A24,24,0,0,0,294.25,169a42.68,42.68,0,0,0,8.23-.11,31.67,31.67,0,0,0,10.17-2.53,9.84,9.84,0,0,0,.87-.49C312.17,161.81,310.86,157.8,309.5,153.68Zm-70.9-7.1c.23-1.28.48-2.47.66-3.68a33.6,33.6,0,0,0,.14-11.23c-1.1-6-4.43-10-10.21-12-.52-.18-1-.34-1.58-.48a31.77,31.77,0,0,0-11.45-.71A22.23,22.23,0,0,0,199.91,128a34.11,34.11,0,0,0-4.88,10.8,26.93,26.93,0,0,0,.45,16.47,19.28,19.28,0,0,0,13.42,12.9,29.22,29.22,0,0,0,7.26,1.06,73.15,73.15,0,0,0,11.27-.5,28.89,28.89,0,0,0,6.42-1.41,1.45,1.45,0,0,0,1.06-1.24c.45-2.41,1-4.81,1.45-7.21.15-.72.29-1.45.45-2.24-.32,0-.48,0-.64,0a101.79,101.79,0,0,1-16.82,1.09,22.65,22.65,0,0,1-5.26-.62,7.86,7.86,0,0,1-5.34-10.47ZM128.35,167.39a40.88,40.88,0,0,0,6.34,1.31,81.33,81.33,0,0,0,13.05.45,24.8,24.8,0,0,0,10.67-2.44,14.53,14.53,0,0,0,7.52-8.68,18.75,18.75,0,0,0,.92-7.25,10.14,10.14,0,0,0-4.9-8.28,83.19,83.19,0,0,0-9.64-5.35,5.67,5.67,0,0,1-2.43-2c-1.59-2.35-.68-4.78,2.07-5.5a3.76,3.76,0,0,1,.75-.1c2.5,0,5-.14,7.48,0,1.85.07,3.68.39,5.67.62,1-3.32,2.14-6.65,3.07-10.08a26.93,26.93,0,0,0-8.13-1.87,55.28,55.28,0,0,0-10.76.27,23.37,23.37,0,0,0-9.78,3.28,12.56,12.56,0,0,0-5.62,7.26,21.05,21.05,0,0,0-.8,7.53c.34,4,2.14,7,6,8.64,2.56,1.08,5,2.53,7.43,3.83,1.09.57,2.17,1.15,3.22,1.78a4.07,4.07,0,0,1,1.85,4.49,3.7,3.7,0,0,1-3.4,2.93c-.3,0-.59,0-.89.06-1.52.06-3,.14-4.56.18a44.6,44.6,0,0,1-11.35-.93l-1.89-.47C129.63,160.52,129,163.87,128.35,167.39ZM179,105.61a7.46,7.46,0,0,0-.23.72c-.35,1.7-.68,3.4-1,5.1q-3.63,18.27-7.25,36.54a74.78,74.78,0,0,0-1.48,8.86c-.5,6.6,2.83,11,9,12.28a16.83,16.83,0,0,0,5.3.08,18.19,18.19,0,0,0,6.32-1.76,1.64,1.64,0,0,0,1-1.55c.08-1.72.29-3.45.43-5.17.11-1.29.19-2.58.3-4-.81,0-1.48.13-2.14.11a17.73,17.73,0,0,1-3-.27,3.12,3.12,0,0,1-2.58-2.92,7.85,7.85,0,0,1,0-2.27c1.07-5.86,2.18-11.71,3.29-17.56.24-1.27.49-2.54.75-3.89h7L197.25,119h-7.4c1-4.54,1.86-8.91,2.79-13.37Zm219.12,12.85c-5,0-9.5,1.15-13.19,4.87-.46-1.71-.87-3.27-1.29-4.82H371.76c-.68,2.16-9.44,49.69-9.32,50.56h13.65c.07-.28.13-.48.16-.68,1.09-5.86,2.2-11.71,3.25-17.57a45,45,0,0,1,2.82-10.5,21.77,21.77,0,0,1,2.93-5,9.25,9.25,0,0,1,7.59-3.66c.5,0,1,0,1.5,0ZM239,169.13h13.71c.11-.41.23-.76.3-1.13,1.12-6.11,2.28-12.21,3.35-18.33a37.82,37.82,0,0,1,3-10,16.33,16.33,0,0,1,3.2-4.69,8.58,8.58,0,0,1,5.36-2.6c1-.09,2-.14,3.06-.22l3.5-13.14c-5,.09-9.44,1.18-13.07,4.87L260.21,119H248.37C245.25,135.72,242.15,152.36,239,169.13Z"/><path class="cls-1" d="M428.27,139.37a18.75,18.75,0,0,1-5,12.89,8.42,8.42,0,0,1-5,2.82,6.78,6.78,0,0,1-6.46-2.09,9.76,9.76,0,0,1-2.53-8.33,19.1,19.1,0,0,1,4.84-10.55,11.46,11.46,0,0,1,6.4-3.84,5.91,5.91,0,0,1,6.92,4A15,15,0,0,1,428.27,139.37Z"/><path class="cls-1" d="M346.1,146.6c-.47,2.19-.88,4.25-1.37,6.29a4.48,4.48,0,0,1-.74,1.46,10,10,0,0,1-10.23,3.7c-3.09-.88-4.33-3.4-3-6.3a10,10,0,0,1,7.54-5.62A18.9,18.9,0,0,1,346.1,146.6Z"/><path class="cls-1" d="M112.8,146.59c-.44,2.14-.82,4.13-1.28,6.1a5.46,5.46,0,0,1-.84,1.69,10,10,0,0,1-10.13,3.69c-3.21-.87-4.46-3.48-3-6.48a10.05,10.05,0,0,1,7.26-5.42C107.46,145.59,110,146,112.8,146.59Z"/><path class="cls-1" d="M226.69,137.3H209.6a3.63,3.63,0,0,1,.12-.85,29.19,29.19,0,0,1,1.4-3.25c2.56-4.59,7.58-5.57,11.33-4.78a5.29,5.29,0,0,1,4.21,4.81A36.48,36.48,0,0,1,226.69,137.3Z"/></g></g></svg>