<svg xmlns="http://www.w3.org/2000/svg" width="108.938" height="29.12" viewBox="0 0 108.938 29.12">
  <defs>
    <style>
      .cls-1 {
        fill: #f9f9fa;
        fill-rule: evenodd;
      }
    </style>
  </defs>
  <path id="DOGE" class="cls-1" d="M839.259,1738.51h11.12a12.708,12.708,0,0,0,9.6-4.04,14.724,14.724,0,0,0,0-19.92,12.708,12.708,0,0,0-9.6-4.04h-11.12v28Zm5.52-22.72h5.6a7.721,7.721,0,0,1,5.92,2.44,8.737,8.737,0,0,1,2.28,6.28,8.969,8.969,0,0,1-2.28,6.32,7.8,7.8,0,0,1-5.92,2.4h-5.6v-17.44Zm50.8,8.72a14.54,14.54,0,1,0-29.08,0,14.595,14.595,0,0,0,24.84,10.36A14.1,14.1,0,0,0,895.579,1724.51Zm-23.6,0a8.929,8.929,0,0,1,2.6-6.6,9.276,9.276,0,0,1,12.88,0,9.677,9.677,0,0,1,0,13.2,9.38,9.38,0,0,1-12.88,0A8.929,8.929,0,0,1,871.979,1724.51Zm40.92,3.84h8.48a6.936,6.936,0,0,1-2.88,3.92,10.706,10.706,0,0,1-12.24-1.16,9.681,9.681,0,0,1-.04-13.16,8.786,8.786,0,0,1,6.6-2.64,9.427,9.427,0,0,1,4.48,1.08,7.383,7.383,0,0,1,3.04,2.8l4.72-2.72a13.222,13.222,0,0,0-5.08-4.76,14.713,14.713,0,0,0-7.12-1.76,14.414,14.414,0,0,0-14.68,14.6,14.055,14.055,0,0,0,4.24,10.32,14.738,14.738,0,0,0,10.76,4.2,13.662,13.662,0,0,0,9.92-3.72,12.924,12.924,0,0,0,3.84-9.72v-2.16H912.9v4.88Zm34.079-1.4v-5.2h-10.6v-5.96h11.6v-5.28h-17.12v28h17.32v-5.28h-11.8v-6.28h10.6Z" transform="translate(-839.25 -1709.94)"/>
</svg>
