<svg xmlns="http://www.w3.org/2000/svg" viewBox="0 0 405.09 124.36"><defs><style>.cls-1{fill:#fff;}</style></defs><title>FedEx</title><g id="Layer_2" data-name="Layer 2"><g id="Layer_1-2" data-name="Layer 1"><g id="FedEx"><path class="cls-1" d="M31.62,119.92H0V.22A.33.33,0,0,1,.06.16S.11.1.14.1A3.18,3.18,0,0,1,.57,0h69.5a2.88,2.88,0,0,1,.49.08V26.61c-3.24,0-6.48,0-9.72,0h-29c-.26.9-.3,15.89-.06,17.2H67.34c.09,1.38,0,2.65,0,3.92s0,2.58,0,3.86v7.58l.19.06c.16-.21.34-.41.48-.63C74.1,48.77,83,43,94.09,40.4a50,50,0,0,1,11.81-1.23,46.91,46.91,0,0,1,20,4.3,37.63,37.63,0,0,1,16.4,15.24,47.21,47.21,0,0,1,3.86,8.58c.1.3.22.6.33.9a3,3,0,0,0,.25.27l.39-1.09a42,42,0,0,1,10.54-17.2,36.32,36.32,0,0,1,20.66-10.24,38.23,38.23,0,0,1,14.57.62,26.06,26.06,0,0,1,13.2,7.76c.24.26.5.5.77.74,0,0,.13,0,.36.07,0-.42.08-.82.08-1.23V.24c.88-.24,25.87-.33,27.79-.12a4.14,4.14,0,0,1,.15.67c0,.35,0,.71,0,1.07V119.73c-.94.32-26.72.37-27.92.07-.1-2.47,0-5-.07-7.48l-.3-.09c-.25.31-.52.62-.76.94a27.11,27.11,0,0,1-10.47,8.64,28.14,28.14,0,0,1-14.62,2.42,36.75,36.75,0,0,1-15.52-4.82,40.49,40.49,0,0,1-16-17.29,43.89,43.89,0,0,1-4.29-13.74c0-.14-.05-.28-.08-.42s-.09-.35-.13-.51c-.85-.21-54.48-.24-55.56,0a7.8,7.8,0,0,0,.2,3,16.5,16.5,0,0,0,13.08,13,20,20,0,0,0,9.44-.57,11.25,11.25,0,0,0,6-4.61,3.06,3.06,0,0,1,2.91-1.41c7.91.07,15.81,0,23.71,0h1.44a2.4,2.4,0,0,1-.11.62c-3.11,7.42-7.54,13.85-14.11,18.66a39.91,39.91,0,0,1-16.35,6.88,52.65,52.65,0,0,1-13,.82c-11.84-.71-22.06-5-30.14-13.89a39.92,39.92,0,0,1-9.88-20.47,48.32,48.32,0,0,1,.48-18.94l.15-.73a.76.76,0,0,0,0-.21c-.74-.24-29.84-.34-31.69-.09-.16,2.35,0,4.73-.07,7.11s0,4.79,0,7.18v36ZM173.38,81.8A21.85,21.85,0,0,0,175,90.49c2.67,6.51,7.14,10.79,14.48,11.32A15.08,15.08,0,0,0,198,100a15.34,15.34,0,0,0,7-8.87,29.82,29.82,0,0,0-.43-20,16.83,16.83,0,0,0-3.79-6c-4.3-4.48-11.37-5.09-16.43-3.08a15.44,15.44,0,0,0-7.9,7.23A26.1,26.1,0,0,0,173.38,81.8ZM120.74,69.91a15.48,15.48,0,0,0-4.31-8.51,14.7,14.7,0,0,0-10.06-4.13A15.21,15.21,0,0,0,90.5,69.91Z"/><path class="cls-1" d="M235.56.17h66c.24.85.32,24.81.08,26.3-.42,0-.86.08-1.31.08H264.48c-1,0-1.11.08-1.11,1.1q0,7.56,0,15.12a9.65,9.65,0,0,0,.11,1c.49,0,.94.06,1.39.06h35.4c.45,0,.9.07,1.4.1V69.4c-2.15.08-4.25,0-6.34,0s-4.22,0-6.33,0H263.51a12.24,12.24,0,0,0-.14,1.34q0,10.62,0,21.23a13.37,13.37,0,0,0,.15,1.36h38c.31.91.37,25.12.09,26.43-.34,0-.72.1-1.1.1H236.22c-.55,0-.76-.27-.76-.79,0-.22,0-.43,0-.65V1.48C235.46,1.07,235.52.65,235.56.17Z"/><path class="cls-1" d="M302.29,119.84C313.6,107.11,324.74,94.56,336,81.93L302.3,44a6.58,6.58,0,0,1,.81-.14q16.78,0,33.57,0a1.94,1.94,0,0,1,1.56.76q7,7.8,14.1,15.58c.66.73,1.34,1.45,2.22,2.41a9.17,9.17,0,0,1,.61-.94c4.87-5.61,9.77-11.2,14.63-16.82a2.63,2.63,0,0,1,2.2-1q15.66,0,31.32,0h1.15l.11.23c-2.71,3.14-5.5,6.22-8.25,9.34s-5.6,6.3-8.4,9.45l-8.32,9.39-8.41,9.46c3.77,4.31,7.56,8.48,11.3,12.69S390,102.82,393.71,107l11.38,12.77a8.22,8.22,0,0,1-1,.12q-16.74,0-33.46,0a2.1,2.1,0,0,1-1.73-.84q-7.24-8.19-14.53-16.35c-.42-.47-.87-.91-1.38-1.46-.4.42-.72.74-1,1.08q-7.38,8.35-14.74,16.72a2.16,2.16,0,0,1-1.83.85q-16,0-32,0C303.17,119.9,302.85,119.87,302.29,119.84Z"/></g></g></g></svg>